<?xml version="1.0" encoding="UTF-8"?>
<svg viewBox="0 0 743.39 326.39" xmlns="http://www.w3.org/2000/svg">
 <path d="m379.34 0.9861c-7.9012-0.095306-15.747 0.50458-23.094 2.0938-25.426 5.4997-45.919 17.082-68.25 31.281-31.752 27.156-17.093-22.321-0.4375-26.344-1.9672-1.8182-10.824 2.512-15.344 8.75-5.2337-5.3691-21.447-6.5962-25 0.53125-9.004 18.061 21.9 3.2766 2.5625 0.8125 29.003-12.314 20.032 16.246 9.7188 28.562 0.83502 4.4019-47.648 39.684-59.156 27.781 15.774-25.257-9.6767 13.624-11.844-0.84375 1.8561-25.46-4.6475 15.759-6.4375-0.84375 0.1239 12.557-53.348 29.642-31.281 8 23.84-24.122 15.63-56.361-12.844-71.938-15.697 13.664-15.246 50.792 2.75 69.219-0.0177 25.364-51.476 14.067-72.25 14.906 8.4592-13.964 12.688-64.11 36.156-62.906 0.072205 10.667 14.616 14.832 8.4375-0.59375-23.219-19.002-34.086 39.594-45.156 19.031-11.091-3.6446-7.6263 4.811 3.5 6.0625 6.9271 40.13-22.907 40.389-46.875 40.656h-24.219l-0.28125 27.062 49.188-0.03125c3.6566-0.34915 21.775 13.28 24.344 20.906-6.2703-0.31973-14.299-0.87691-17.125 0.25-37.156 14.816 2.6755 45.516 9.1562 20.719-3.3406-9.7076-11.624 5.8308-17.406 3.25-10.678-4.766-3.4963-20.472 13.031-21.719 13.304-1.0104 25.04 12.168 13.031 36.188-10.295 20.591-42.28 16.1-48.344 1.4062-22.834-9.4534 1.5316 14.24 14.375 12.656 31.765 2.2604 2.1618 7.5938 8.3125 32.594 4.3255 17.518 36.594 0.89487 17.312-10.844-13.43-8.1763 6.5478 10.726 0.375 13.969-25.39 13.336-18.86-29.3-1.4688-35.188 21.464-15.788 25.388-50.087 3.7812-67.344-16.086-10.771 17.052-8.4534 27.844-11.156 29.791-5.382 21.171 23.446 8.8125 40.188-5.5906 7.5733-21.822 46.937-6.5938 74.594 11.946 21.696 53.233 44.938 49.719 68.062-2.444 16.081-7.1664 16.4 21.75 3.0625 35.937-16.576 47.024-73.8 45.188-95.656-2.3496-27.97-13.353-54.034-33.688-69.219-19.815-14.796-42.962-20.518-68.156-19.969-7.2869-7.388 38.444-9.8049 48.312-13.688 15.869-7.4149 76.968-11.076 49.469 21.5-17.781-10.943-17.812-10.316-0.53125 3.375 0.040222 6.8014 3.3236 23.03 7.7812 26.594-3.2447 1.543 4.5134 23.76 6.2188 33.406 2.506 14.174 11 33.381-4.7188 52.25-16.994 31.207 18.502 51.333-16.406 61.812-3.9911 4.7282 11.178-1.2566 16.469-10.594 0.99738 19.578-15.31 22.545-1.9688 33.75 12.748-4.1188-11.652-1.3491-2.5938-13.969 17.564-26.192-13.289-48.043 10.219-77.188 14.69-18.212-10.07-75.862-5.875-78.812 10.256 5.1304 5.6822-9.7349 0.0625-2.4688-17.74-28.481 7.3383-33.981 1.125-51.156-5.2297-14.456-23.043-6.9107-1.625-12.562 27.127-8.2051 48.396-28.182 72.562-40.25 20.347 8.096-3.9468-0.44635 8.2812-4.75 23.16-8.1151 56.51-24.482 76.25-1.1875 22.836 22.729-3.005 61.195-37 59.5-35.773-1.7835-36.212-48.894 3.2188-52.25 29.662-2.5248 32.438 36.9 1.3438 31.125-1.1228 0.79431-6.5181 6.0863 4.8438 3.6562 35.923-7.683 15.779-37.701-3.0938-37.438-34.51 0.48264-55.484 43.893-15.562 55.5 24.626 5.9556 53.605-1.5526 59.281-30.812 2.6479-26.757-10.712-47.264-45.375-51.375-8.7342-7.215 46.346-25.35 48.406-0.71875 6.0415 20.397 16.019-4.5303-1.3125-10 8.0771-3.1963 50.159 3.4786 59.094 19.125-17.292 14.464-38.814 18.639-41.188 58.844-25.419 6.6587 4.8978 14.948 20.188 14.562 27.167-0.68593 50.338-14.904 43.281-43.156-4.6339-15.003-31.422-25.876-16.031-30.188 23.894 16.048 45.762 35.031 68.75 52.219 23.316 18.855 48.782 34.098 89.219 48.531 20.804 7.4257 52.128-3.6772 46.125 27.906 20.54 4.8766-14.43-30.124 3.8438-22.906 28.314-2.0703 22.098 19.676 21.594 38.406-17.617 1.9324-4.0501 29.556 15.094 23.344 16.694 15.242 46.614-10.891 41.656-30.625-5.1834-20.634-18.758-1.772-19.594-11.031-9.3068-1.9107-56.502-18.125-33.25-21 29.721 1.3249 20.624-56.756 5.5625-47.281 12.843 11.41 19.358 38.955-6.0312 45.625-20.709 0.74204-42.684 0.84465-63.281-2.9375-24.688-5.8575-44.28-15.176-69.344-28-8.2918-4.2425-57.672-40.201-28.25-24.719 19.132 9.9029 57.764 28.228 66.375-2.375-5.9927-4.4775-13.319-10.648-21.5-15.938-0.22839 3.0534-2.7632 5.4688-5.875 5.4688-1.616 0-3.089-0.66647-4.1562-1.7188-1.5089 1.4465-3.5588 2.3438-5.8125 2.3438-4.6357 0-8.375-3.7705-8.375-8.4062 0-3.0198 1.5812-5.6739 3.9688-7.1562-8.5059-2.1865-17.419-1.9072-26.375 2.875-22.111 11.688-36.306-6.2386-52.406-18.781 13.852 2.559 43.651-8.4542 31.656-29.656-13.094-12.864-12.408 9.2692-7.7812 1.6562 16.92 0.4725 2.2518 26.78-17.469 22.844-24.59-4.9086-35.898-18.346-63.656-24.406-11.406-2.4905-24.738-4.5599-37.906-4.7188zm-156.28 152.72c2.3038 0.041626 3.5895 5.6534-2.4062 2.3438 0.76465-1.7647 1.6384-2.3576 2.4062-2.3438zm485.25 1.5625c7.1089-0.18237 12.123 4.7489 16.594 5.7188 28.988-9.0105 15.427 36.072-3.4688 38.5-2.6508 1.7879-13.152 4.5764-20.156-2.3125-7.2723 7.3968-35.862-11.854-14-21.312 1.6807-10.088 4.7138-12.611 9.875-16.312 4.2514-3.049 7.925-4.1984 11.156-4.2812zm9.9062 19.438c-4.5384 0.028961-8.4674 0.91684 1.8438 2.5312 7.8427-1.7302 2.6947-2.5602-1.8438-2.5312zm-8.2812 1.9688c-1.8468-0.1098-1.3279 2.2232 5.625 8.6562l2.5938 0.9062 2.0312-0.6875c-1.5845-4.5855-7.8755-8.7338-10.25-8.875zm-4.8438 3.5625c-1.0174-0.008133-0.67706 1.8518 3.1562 7.25l0.9375 1.1562c7.0037 0.55704-1.8555-8.3883-4.0938-8.4062z" fill="#52a500"/>
</svg>
